<svg width="29" height="29" viewBox="0 0 29 29" fill="none" xmlns="http://www.w3.org/2000/svg">
<g clip-path="url(#clip0_7_301)">
<path d="M27.2711 5.10099e-08H1.59196C0.712625 0.000440487 -0.000220167 0.713726 5.10099e-08 1.59328V27.2725C0.000440487 28.1518 0.713726 28.8646 1.59328 28.8644H27.2711C28.1509 28.8646 28.8642 28.1516 28.8644 27.2718C28.8644 27.2716 28.8644 27.2714 28.8644 27.2711V1.59196C28.864 0.712625 28.1507 -0.000220167 27.2711 5.10099e-08V5.10099e-08Z" fill="white"/>
<path d="M19.9289 28.8646V17.7022H23.6919L24.2557 13.333H19.9289V10.5504C19.9289 9.28829 20.2792 8.42834 22.089 8.42834H24.3825V4.53115C23.9835 4.47807 22.6144 4.35938 21.0214 4.35938C17.6952 4.35938 15.4188 6.3889 15.4188 10.1176V13.333H11.6698V17.7022H15.4188V28.8646H19.9289Z" fill="#1A1A1A"/>
</g>
<defs>
<clipPath id="clip0_7_301">
<rect width="28.8644" height="28.8644" fill="white"/>
</clipPath>
</defs>
</svg>
