<svg width="30" height="29" viewBox="0 0 30 29" fill="none" xmlns="http://www.w3.org/2000/svg">
<g clip-path="url(#clip0_7_304)">
<path d="M2.66873 1.96399C0.400467 4.32005 0.864703 6.82284 0.864703 14.4262C0.864703 20.7403 -0.236955 27.07 5.52871 28.5601C7.32913 29.0232 23.2815 29.0232 25.0795 28.5577C27.4801 27.9383 29.4333 25.9912 29.7002 22.596C29.7375 22.1222 29.7375 6.73865 29.699 6.25517C29.4152 2.6387 27.189 0.554449 24.2557 0.132307C23.5834 0.03489 23.4487 0.00602559 19.9994 1.21705e-05C7.7645 0.00602559 5.08251 -0.53879 2.66873 1.96399Z" fill="url(#paint0_linear_7_304)"/>
<path d="M15.2945 3.77518C10.9276 3.77518 6.78075 3.38671 5.19681 7.45178C4.54255 9.13073 4.63756 11.3112 4.63756 14.4334C4.63756 17.1731 4.54977 19.748 5.19681 21.4137C6.77714 25.4812 10.9577 25.0915 15.2921 25.0915C19.4739 25.0915 23.7855 25.5269 25.3887 21.4137C26.0441 19.718 25.9479 17.57 25.9479 14.4334C25.9479 10.2697 26.1776 7.58167 24.1583 5.56357C22.1138 3.51901 19.3488 3.77518 15.2897 3.77518H15.2945ZM14.3396 5.69586C23.4487 5.68143 24.6081 4.66877 23.9683 18.7366C23.741 23.7121 19.9525 23.166 15.2957 23.166C6.8048 23.166 6.56066 22.9231 6.56066 14.4286C6.56066 5.83538 7.23416 5.70067 14.3396 5.69346V5.69586ZM20.9832 7.46501C20.2773 7.46501 19.7048 8.03749 19.7048 8.74346C19.7048 9.44944 20.2773 10.0219 20.9832 10.0219C21.6892 10.0219 22.2617 9.44944 22.2617 8.74346C22.2617 8.03749 21.6892 7.46501 20.9832 7.46501ZM15.2945 8.95995C12.2722 8.95995 9.82233 11.411 9.82233 14.4334C9.82233 17.4557 12.2722 19.9056 15.2945 19.9056C18.3169 19.9056 20.7656 17.4557 20.7656 14.4334C20.7656 11.411 18.3169 8.95995 15.2945 8.95995ZM15.2945 10.8806C19.991 10.8806 19.997 17.9861 15.2945 17.9861C10.5993 17.9861 10.5921 10.8806 15.2945 10.8806Z" fill="#1A1A1A"/>
</g>
<defs>
<linearGradient id="paint0_linear_7_304" x1="2.72408" y1="27.0208" x2="29.5505" y2="3.80286" gradientUnits="userSpaceOnUse">
<stop stop-color="white"/>
<stop offset="0.5" stop-color="white"/>
<stop offset="1" stop-color="white"/>
</linearGradient>
<clipPath id="clip0_7_304">
<rect width="28.8644" height="28.8644" fill="white" transform="translate(0.864502)"/>
</clipPath>
</defs>
</svg>
